<?xml version="1.0" encoding="utf-8"?>
<!-- Generator: Adobe Illustrator 19.1.0, SVG Export Plug-In . SVG Version: 6.00 Build 0)  -->
<svg version="1.1" id="Layer_1" xmlns="http://www.w3.org/2000/svg" xmlns:xlink="http://www.w3.org/1999/xlink" x="0px" y="0px"
	 width="157.5px" height="157.5px" viewBox="-70 47.5 157.5 157.5" style="enable-background:new -70 47.5 157.5 157.5;"
	 xml:space="preserve">
<metadata><?xpacket begin="﻿" id="W5M0MpCehiHzreSzNTczkc9d"?>
<x:xmpmeta xmlns:x="adobe:ns:meta/" x:xmptk="Adobe XMP Core 5.6-c067 79.157747, 2015/03/30-23:40:42        ">
   <rdf:RDF xmlns:rdf="http://www.w3.org/1999/02/22-rdf-syntax-ns#">
      <rdf:Description rdf:about=""/>
   </rdf:RDF>
</x:xmpmeta>
                                                                                                    
                                                                                                    
                                                                                                    
                                                                                                    
                                                                                                    
                                                                                                    
                                                                                                    
                                                                                                    
                                                                                                    
                                                                                                    
                                                                                                    
                                                                                                    
                                                                                                    
                                                                                                    
                                                                                                    
                                                                                                    
                                                                                                    
                                                                                                    
                                                                                                    
                                                                                                    
                           
<?xpacket end="w"?></metadata>
<style type="text/css">
	.st0{fill:#FFFFFF;}
</style>
<g>
	<circle class="st0" cx="-11.5" cy="116.1" r="9.6"/>
	<path class="st0" d="M28,106.5c5.3,0,9.6,4.3,9.6,9.6c0,5.3-4.3,9.6-9.6,9.6c-5.3,0-9.6-4.3-9.6-9.6
		C18.4,110.8,22.6,106.5,28,106.5z"/>
	<path class="st0" d="M34.5,158.6c0-3.5-2.7-6.3-6.1-6.6l0,0H-12l0,0c-3.4,0.3-6.1,3.1-6.1,6.6s2.7,6.3,6.1,6.6l0,0h0.4
		c0.1,0,0.1,0,0.2,0c0.1,0,0.1,0,0.2,0h39.8l0,0C31.9,164.9,34.5,162,34.5,158.6z"/>
	<g>
		<path class="st0" d="M8.8,205c-43.4,0-78.8-35.3-78.8-78.8s35.3-78.8,78.8-78.8s78.8,35.3,78.8,78.8S52.1,205,8.8,205z M8.8,64.4
			c-34.1,0-61.8,27.7-61.8,61.8S-25.3,188,8.8,188s61.8-27.7,61.8-61.8S42.9,64.4,8.8,64.4z"/>
	</g>
</g>
</svg>
