<svg xmlns="http://www.w3.org/2000/svg" preserveAspectRatio="xMidYMid" width="56" height="30" viewBox="0 0 56 30"><defs><style>.cls-1{fill:#fff;fill-rule:evenodd}</style></defs><path d="M56.004 28.612V1.376c0-.762-.627-1.39-1.387-1.39H1.4c-.764 0-1.387.63-1.387 1.39v27.237c0 .765.623 1.393 1.387 1.393h53.217c.76 0 1.387-.628 1.387-1.393zm-3.214-18.38c.2 0 .36.162.36.363v8.8c0 .2-.16.365-.36.365h-.675a.362.362 0 0 1-.358-.365v-8.8c0-.2.16-.362.358-.362h.675zM2.525 14.998c0-1.45 1.17-2.62 2.61-2.62a2.617 2.617 0 0 1 0 5.236 2.614 2.614 0 0 1-2.61-2.616zm8.036 12.757V2.237h38.81v25.517H10.56z" class="cls-1"/></svg>