<svg xmlns="http://www.w3.org/2000/svg" preserveAspectRatio="xMidYMid" width="56" height="30" viewBox="0 0 56 30"><defs><style>.cls-1{fill:#fff;fill-rule:evenodd}</style></defs><path d="M56.004 28.612V1.376c0-.762-.627-1.389-1.387-1.389H1.4C.636-.013.013.614.013 1.376v27.236c0 .765.623 1.393 1.387 1.393h53.217c.76 0 1.387-.628 1.387-1.393zM52.79 10.233c.2 0 .361.161.361.362v8.8a.363.363 0 0 1-.361.365h-.675a.362.362 0 0 1-.358-.365v-8.8a.36.36 0 0 1 .358-.362h.675zM2.525 14.997a2.614 2.614 0 0 1 2.61-2.62 2.617 2.617 0 1 1 0 5.236 2.614 2.614 0 0 1-2.61-2.616zm8.036 12.757V2.237h38.806v25.517H10.561z" class="cls-1"/></svg>