<svg id="Layer_1" xmlns="http://www.w3.org/2000/svg" width="157.5" height="157.5" viewBox="-70 47.5 157.5 157.5"><style>.st0{fill:#fff}</style><circle class="st0" cx="-11.5" cy="116.1" r="9.6"/><path class="st0" d="M28 106.5c5.3 0 9.6 4.3 9.6 9.6s-4.3 9.6-9.6 9.6-9.6-4.3-9.6-9.6 4.2-9.6 9.6-9.6zm6.5 52.1c0-3.5-2.7-6.3-6.1-6.6H-12c-3.4.3-6.1 3.1-6.1 6.6s2.7 6.3 6.1 6.6h40.6c3.3-.3 5.9-3.2 5.9-6.6z"/><path class="st0" d="M8.8 205c-43.4 0-78.8-35.3-78.8-78.8s35.3-78.8 78.8-78.8 78.8 35.3 78.8 78.8S52.1 205 8.8 205zm0-140.6c-34.1 0-61.8 27.7-61.8 61.8S-25.3 188 8.8 188s61.8-27.7 61.8-61.8S42.9 64.4 8.8 64.4z"/></svg>